<?xml version="1.0"?>
<svg xmlns:rdf="http://www.w3.org/1999/02/22-rdf-syntax-ns#" xmlns="http://www.w3.org/2000/svg" xmlns:cc="http://web.resource.org/cc/" xmlns:xlink="http://www.w3.org/1999/xlink" xmlns:dc="http://purl.org/dc/elements/1.1/" xmlns:svg="http://www.w3.org/2000/svg" id="svg1346" xml:space="preserve" viewBox="0 0 215.9 279.4" version="1.0" y="0" x="0">
 <defs id="defs1348">
  <style id="style1350" type="text/css">
    .fil0 {fill:#663300}
    .fil1 {fill:url(#id0)}
  </style>
  <radialGradient id="id0" gradientUnits="userSpaceOnUse" cy="86.921" cx="70.284" r="79.477">
   <stop id="stop1353" stop-color="#fff" offset="0"/>
   <stop id="stop1355" stop-color="#fdfcc9" offset=".36863"/>
   <stop id="stop1357" stop-color="#c93" offset="1"/>
  </radialGradient>
<radialGradient id="radialGradient2209" gradientUnits="userSpaceOnUse" cy="101.33" cx="94.343" gradientTransform="scale(1.0011 .99887)" r="130.29"><stop id="stop2142" stop-color="#ffffea" offset="0"/><stop id="stop2148" stop-color="#ffffc1" offset=".59036"/><stop id="stop2144" stop-color="#bfaa0a" offset="1"/></radialGradient>
</defs>
 <g id="volley" transform="matrix(-.047575 1.728 1.728 .047575 -126.45 -73.574)">
  <path id="_128508744" fill="#720b00" d="m114.78 217.24c-4.83-0.43-9.58-1.04-14.3-2.01-2.418-0.53-4.831-1.32-7.218-2.03-9.246-3.32-17.247-7.74-25.019-13.76-2.998-2.59-5.842-5.34-8.662-8.16-0.754-0.89-2.158-2.59-2.657-3.23-0.991-1.28-2.023-2.53-2.982-3.8-3.962-5.77-7.061-11.64-9.652-18.11-0.635-1.96-1.625-3.94-1.524-6.02-1.879-4.12-2.692-9.02-2.971-13.52 0.177-1.98 0.889-3.7 1.524-5.58 0-1.6-0.915-2.49-1.804-3.79 0-5.1 0.61-10.01 1.626-15.01 0.762-1.83 1.778-3.53 2.438-5.38 0.356-1.73 0.559-3.46 0.61-5.21 2.565-6.58 5.664-12.524 9.601-18.391 3.404-4.496 3.404-4.496 5.08-6.528 3.988-4.318 8.128-8.204 12.7-11.862 3.683-2.54 7.391-5.029 11.354-7.112 1.93-0.914 3.861-1.803 5.791-2.692 4.216-1.601 8.407-2.921 12.755-4.064 7.51-1.575 14.83-2.21 22.53-1.778 0.3 0.05 0.38 0.127 0.58 0.33 4.22-0.254 8.48 1.067 12.55 2.032 4.19 1.346 4.19 1.346 6.93 2.337 0 0.482 2.24 1.574 2.67 1.828 1.68 0.559 3.35 1.118 5.03 1.677 6.12 3.403 12.24 7.086 17.32 11.963 0.74 1.143 1.5 2.286 2.26 3.455 2.39 1.701 4.73 3.429 6.96 5.334 1.58 1.93 3.15 3.886 4.75 5.842 1.45 2.108 2.92 4.216 4.39 6.349 2.82 4.95 2.82 4.95 4.17 7.6 2.64 5.91 4.72 11.73 5.77 18.16 0.25 3.37 0.43 6.78 0.33 10.18 0.43 0.59 0.25 1.42 0.25 2.14-0.63 6.19-1.29 12.31-2.62 18.44-1.44 5.63-3.42 11.25-6.09 16.43-0.43 0.61-1.12 1.09-1.78 1.42-0.71 3.56-3 6.81-4.67 9.96-0.79 1.17-1.58 2.36-2.37 3.55-1.42 1.4-3.27 1.83-4.57 3.26-0.38 0.68-0.76 1.37-1.12 2.08-3.14 3.15-6.57 5.97-10.05 8.71-3.61 2.39-7.29 5.03-11.31 6.71-1.19 0.22-2.54 0.4-3.6 0.99-0.49 0.45-0.97 0.91-1.45 1.37-4.29 1.62-8.54 2.92-12.98 4.06-4.65 0.92-9.32 1.42-14.05 1.78-2.18 0-4.37 0.03-6.52 0.05z"/>
  <path id="_22009664" fill="url(#radialGradient2209)" d="m115 216.97c-2.29-0.23-4.58-0.43-6.86-0.63-7.55-1.2-14.734-3.08-21.769-6.1-1.905-0.94-3.81-1.88-5.69-2.79-8.433-4.88-16.967-11.03-22.86-18.9-1.727-3-1.727-3-3.099-5.69-2.26-5.31-3.861-10.47-5.232-16.05 0.838-2.32 1.879-4.25 3.149-6.35 3.531-4.75 7.874-8.13 12.98-11.13 0.482-0.1 0.965-0.18 1.448-0.25 1.117 10.46 6.604 20.44 12.141 29.18 3.048 4.29 6.299 8.38 9.83 12.3 1.549 1.49 3.098 2.99 4.673 4.52 2.108 1.67 4.242 3.37 6.379 5.08 8.68 5.84 17.45 9.75 27.86 11.17 4.93 0.41 9.7 0.51 14.61-0.07 4.16-0.69 6.45-1.2 6.68-1.17-1.83 1.98-5.74 2.77-8.26 3.6-3.53 0.92-7.09 1.71-10.67 2.39-6.17 0.66-6.17 0.66-9.07 0.84-2.08 0-4.16 0.03-6.24 0.05zm-39.805-144.27c0.152-0.812 6.35-3.911 7.366-4.47 1.879-0.914 3.759-1.829 5.664-2.718 5.029-1.93 10.033-3.556 15.315-4.724 2.13-0.356 4.27-0.686 6.43-1.016 4.65-0.305 9.32-0.584 13.99-0.33 0.1 0.025 0.21 0.05 0.31 0.101-0.05 0.076-2.49 0.889-2.9 1.067-0.86 0.584-1.67 1.219-2.41 1.956-11.94 1.371-11.94 1.371-16.59 2.032-7.846 1.346-15.568 3.073-22.959 6.096-1.422 0.66-2.819 1.321-4.216 2.006zm-30.988 42.851c0.076-1.32 0.177-2.62 0.279-3.91 3.327-8.66 7.899-16.639 13.792-23.802 4.191-4.75 8.687-9.195 13.767-13.005 5.105-3.023 10.185-5.055 15.824-6.833 10.313-2.717 20.551-4.038 31.141-5.08 7.77 5.004 9.98 14.834 11.68 23.292 0.03 0.508 0.05 1.016 0.08 1.55-0.18 0.482-0.36 0.99-0.53 1.498-4.75-1.524-9.43-2.641-14.35-3.403-5.72-0.585-11.41-0.635-17.15-0.178-5.638 0.736-11.049 1.905-16.535 3.403-3.962 1.347-3.962 1.347-7.569 2.718-9.678 4.394-18.491 9.4-25.832 17.25-1.753 2.08-3.2 4.16-4.597 6.5zm-2.54 25.15c0-1.22-1.27-2.62-1.905-3.61 0-5.01 0.685-9.93 1.676-14.81 0.406-1.07 0.864-2.29 1.676-3.1 0.686-2.06 0.686-2.06 1.372-3.63 2.235-3.89 4.928-6.91 8.128-10.03 3.988-3.38 8.153-6.151 12.598-8.868 1.753-0.94 3.531-1.855 5.309-2.769 2.083-0.914 4.191-1.803 6.299-2.692 5.918-2.058 11.76-3.658 17.907-4.75 5.923-0.661 5.923-0.661 8.713-0.838h6.37c7.09 0.457 13.62 1.701 20.38 3.911 0.25 0.813 0.66 1.55 1.09 2.286 0.2 4.598 0.2 9.19-0.1 13.79-0.28 0.43-0.54 0.89-0.79 1.35-1.7 0.07-1.7 0.07-10.92 0.07-5.67 0.28-11.31 0.87-16.92 1.71-5.689 1.06-11.303 2.41-16.865 4.06-2.566 0.89-5.106 1.8-7.646 2.72-13.944 6.12-26.314 13.56-36.372 25.2zm7.442 25.9c-7.138-3.55-8.306-12.9-9.017-19.94 0.178-1.98 0.889-3.7 1.524-5.58 3.937-4.47 8.255-8.51 12.954-12.2 3.226-2.28 6.502-4.47 9.855-6.55 5.258-2.79 5.258-2.79 8.052-4.14 2.667-1.14 5.359-2.29 8.052-3.4 3.86-1.32 3.86-1.32 8.255-2.7 7.874-2.08 15.676-3.6 23.796-4.39 2.37-0.15 4.73-0.3 7.12-0.43 3.55 0 7.11 0.02 10.69 0.05 0.13 0.91 0.33 1.37 0.38 2.03-0.69 4.57-0.69 4.57-1.35 8.13-1.77 5.56-4.11 10.72-7.16 15.72-3.28 4.73-3.28 4.73-3.45 4.83-3.43-0.99-7.22-0.69-10.77-0.69-5.82 0.38-12.094 0.84-17.682 2.69-0.965 0.59-1.905 1.02-2.971 1.38-0.762-0.05-1.524-0.08-2.286-0.11-5.741 1.43-11.202 3.76-16.587 6.18-1.041 1.14-1.549 1.29-3.022 1.62-4.725 3.05-4.725 3.05-5.893 3.91-1.727 1.43-3.353 2.98-4.953 4.53-0.864 1.11-1.727 2.23-2.591 3.35-1.067 1.88-1.981 3.66-2.743 5.64-0.076 0.02-0.152 0.05-0.203 0.07zm91.691 0.33c-0.33-0.56-1.75-0.81-2.41-0.99-8.89-7.57-14.88-16.76-19.3-27.53v-0.31c6.37-8.61 11.27-18.46 11.93-29.28-0.43-1.42-0.4-1.93 0.44-3.2 0.25-4.63 0.38-9.273 0.07-13.896-0.96-1.626-1.19-2.261-0.51-3.988-0.12-2.768-0.81-5.486-1.44-8.179-1.63-6.121-4.73-13.309-10.32-16.738v-0.229c4.17-4.165 9.25-2.743 14.53-1.625 3.05 0.787 6.1 1.727 9.1 2.717 1.09 0.661 2.18 1.321 3.3 1.982v0.127c2.03 1.27 3.22 4.114 4.34 6.146 7.65 19.355 8.46 41.483 5.31 61.903-1.04 5.23-2.31 10.28-4.06 15.29-0.69 1.65-1.38 3.3-2.04 4.98-1.95 3.58-3.88 7.03-6.4 10.23-0.53 0.61-1.83 2.42-2.54 2.59zm46.66 7.45c-0.23-1.73-0.73-3.28-2.54-3.46 1.5-3.94 4.32-7.44 6.48-11.02 1.6-3.33 2.92-6.58 4.06-10.09 1.12-4.26 1.78-8.63 2.29-13.03-0.31 9.88-2.16 19.59-5.33 28.93-1.35 3.26-1.35 3.26-2.7 6.18-0.61 1.16-1.01 1.98-2.26 2.49zm-30.73 0.25c-5.11-1.22-9.53-2.92-14.02-5.69-1.07-1.37-1.07-1.37-1.53-1.78 1.27-1.55 2.57-3.07 3.86-4.6 2.93-4.36 5.19-8.86 7.14-13.74 2.64-7.9 4.19-15.62 5.11-23.9 0.33-4.49 0.33-4.49 0.51-8.74 0-15.29-1.22-31.035-7.47-45.208-0.84-1.6-1.88-3.429-3.18-4.724 3.66 0.432 6.91 2.692 10.04 4.47 1.44 0.94 2.92 1.905 4.39 2.87 2.46 1.855 5.11 3.683 7.32 5.893 0.6 0.915 1.21 1.829 1.85 2.769-0.03 0.101 0.16 0.261 0.13 0.362 0.16 0.306 0.23 0.527 0.43 0.84 2.46 3.973 4.42 8.1 6.4 12.361 1.32 3.531 1.32 3.531 2.69 7.667 1.14 4.91 2.03 9.48 2.54 14.48 0.03 1.86 0.05 3.74 0.08 5.62-0.33 5.23-1.17 10.05-2.36 15.16-1.38 4.14-1.38 4.14-2.72 7.67-2.26 4.8-4.73 9.17-7.62 13.61-3.51 4.68-3.51 4.68-6.1 7.88-3.63 3.94-3.63 3.94-6.22 6.53-0.43 0.05-0.86 0.12-1.27 0.2zm7.36 0.76c-1.6-0.1-4.29 0.03-5.79-0.86 1.55-1.65 3.13-3.3 4.7-4.96 3.53-4.06 6.73-8.35 9.76-12.8 2.79-4.9 2.79-4.9 4.16-7.57 1.35-3.02 1.35-3.02 2.72-6.5 2.01-6.32 3.23-12.27 3.63-18.9v-4.11c-0.81-12.78-4.62-25.604-11.78-36.348 0.76 0 3.37 2.343 4.05 2.876 0 0.025 0.29 0.197 0.29 0.248 1.27 0.915 1.27 0.915 2.29 1.804 6.07 7.442 11.07 14.73 15.01 23.47 0.66 1.85 1.32 3.71 2 5.56 0.44 1.7 0.89 3.43 1.35 5.16 2.23 11.71 0.69 23.37-3.81 34.36-1.42 2.8-1.42 2.8-3.05 5.64-1.83 2.8-3.86 5.41-5 8.56-0.08 0.05-0.13 0.1-0.18 0.18-4.62 1.6-9.02 2.79-13.82 3.73-2.16 0.18-4.34 0.36-6.53 0.46zm-107.11 12.37c-2.363-3.02-4.547-6.2-6.554-9.45-2.895-5.33-5.918-11.05-7.391-16.96v-0.77c1.27 2.09 2.438 3.71 4.293 5.29 0.635 0.33 1.27 0.68 1.905 1.04 0.812 3.96 2.057 7.82 3.378 11.63 0.889 2.03 1.803 4.07 2.718 6.1 1.651 2.97 1.651 2.97 1.651 3.12zm96.797 6.94c-1.75-0.23-3.5-0.44-5.26-0.64-6.37-1.27-12.06-3.23-17.88-6.1-6.58-3.58-12.39-7.82-18.08-12.67-10.01-9.5-19.789-20.68-25.072-33.6 0.991-0.39 1.93-0.87 2.845-1.4 7.442-2.47 15.897-2.69 23.647-2.69 1.47 0.07 3.43 0.05 4.78 0.71 2.94 7.47 7.06 14.32 12.11 20.57 2.36 2.52 4.75 5.26 7.55 7.32 2.15 0.61 2.89 1.37 4.24 3.04 0.94 0.54 1.88 1.07 2.84 1.63 3.74 1.8 7.32 3.1 11.38 3.96 0.79-0.23 1.63 0.13 2.31 0.43 3.84 0.44 7.67 0.36 11.48-0.07 4.93-0.87 9.53-2.21 14.23-3.91 2.26-0.28 2.31 2.99 2.11 4.54-1.55 4.32-4.2 8.51-6.79 12.3l-0.91 0.91c-4.22 2.74-9.75 4.04-14.61 5.03-3.65 0.48-7.23 0.61-10.92 0.64zm-21.94 16.76c-1.91-0.23-3.79-0.43-5.67-0.64-7.14-1.37-13.31-3.53-19.73-6.93-2.14-1.3-4.25-2.67-6.33-4.04-1.014-0.76-2.03-1.52-3.046-2.28-6.122-5.34-11.278-10.75-16.129-17.23-0.965-1.44-1.931-2.89-2.87-4.31-3.252-5.57-6.071-10.95-8.357-16.97-0.94-3.18-2.362-6.83-2.362-10.21 0.584-0.38 1.016-0.84 1.575-1.27 5.232-2.41 10.972-5.08 16.687-6.02 0.534 0.05 1.067 0.1 1.626 0.18 5.131 11.99 13.636 22.37 22.806 31.54 1.27 1.17 2.54 2.34 3.84 3.51 7.24 5.79 14.25 10.51 22.76 14.22 1.27 0.43 2.54 0.89 3.83 1.35 6.81 1.9 13.21 2.92 20.3 2.46 5.23-0.53 10.08-1.85 15.01-3.73 0 0.53-1.2 2.28-1.55 2.77-4.01 3.65-8.13 7.24-12.65 10.26-2.21 1.29-4.39 2.59-6.58 3.91-4.01 1.73-8.76 2.39-13.08 3.05-3.35 0.25-6.71 0.35-10.08 0.38z"/>
</g>
<metadata><rdf:RDF><cc:Work><dc:format>image/svg+xml</dc:format><dc:type rdf:resource="http://purl.org/dc/dcmitype/StillImage"/><cc:license rdf:resource="http://creativecommons.org/licenses/publicdomain/"/><dc:publisher><cc:Agent rdf:about="http://openclipart.org/"><dc:title>Openclipart</dc:title></cc:Agent></dc:publisher><dc:title>Volleyball</dc:title><dc:date>2009-04-04T02:24:58</dc:date><dc:description>A yellow volleyball by Andrea Bianchini</dc:description><dc:source>http://openclipart.org/detail/23986/volleyball-by-anonymous-23986</dc:source><dc:creator><cc:Agent><dc:title>Anonymous</dc:title></cc:Agent></dc:creator><dc:subject><rdf:Bag><rdf:li>ball</rdf:li><rdf:li>beach</rdf:li><rdf:li>clip art</rdf:li><rdf:li>clipart</rdf:li><rdf:li>image</rdf:li><rdf:li>media</rdf:li><rdf:li>png</rdf:li><rdf:li>public domain</rdf:li><rdf:li>recreation</rdf:li><rdf:li>sport</rdf:li><rdf:li>svg</rdf:li><rdf:li>volleyball</rdf:li><rdf:li>yellow</rdf:li></rdf:Bag></dc:subject></cc:Work><cc:License rdf:about="http://creativecommons.org/licenses/publicdomain/"><cc:permits rdf:resource="http://creativecommons.org/ns#Reproduction"/><cc:permits rdf:resource="http://creativecommons.org/ns#Distribution"/><cc:permits rdf:resource="http://creativecommons.org/ns#DerivativeWorks"/></cc:License></rdf:RDF></metadata></svg>
